<?xml version="1.0" ?><svg fill="none" height="64" viewBox="0 0 64 64" width="64" xmlns="http://www.w3.org/2000/svg"><path clip-rule="evenodd" d="M48.9541 28.3726V43.648L31.4976 52.375L14.041 43.648V28.3726L31.4976 19.6431L48.9541 28.3726Z" fill="url(#paint0_linear)" fill-rule="evenodd"/><path clip-rule="evenodd" d="M31.4966 19.6431V52.375L14.04 43.648V28.3726L31.4966 19.6431Z" fill="url(#paint1_linear)" fill-rule="evenodd"/><path clip-rule="evenodd" d="M55.502 20.7344L48.9536 28.3709L31.4971 19.6438L38.043 12.0049L55.502 20.7344Z" fill="url(#paint2_linear)" fill-rule="evenodd"/><path clip-rule="evenodd" d="M7.50194 20.7295L14.0503 28.366L31.5068 19.6389L24.9609 12L7.50194 20.7295Z" fill="url(#paint3_linear)" fill-rule="evenodd"/><path d="M19.502 26.9995C19.502 20.3721 24.8745 14.9995 31.502 14.9995C38.1294 14.9995 43.502 20.3721 43.502 26.9995C43.502 33.6269 38.1294 38.9995 31.502 38.9995C24.8745 38.9995 19.502 33.6269 19.502 26.9995Z" fill="#FF6700"/><path clip-rule="evenodd" d="M31.8438 22.9995H25.2361C25.1616 22.9995 25.1016 23.0583 25.1016 23.1301V30.9538C25.1016 31.0256 25.1616 31.0844 25.2361 31.0844H26.9706C27.0451 31.0844 27.1052 31.0256 27.1052 30.9538V24.8137C27.1052 24.7432 27.1652 24.6844 27.2397 24.6844H30.9778C32.0292 24.6844 32.327 25.4798 32.327 25.9931V30.9538C32.327 31.0256 32.3871 31.0844 32.4616 31.0844H34.1948C34.2692 31.0844 34.3293 31.0256 34.3293 30.9538V25.4041C34.3293 24.9456 34.2732 24.2873 33.6763 23.7087C33.0519 23.104 32.4812 22.9995 31.8438 22.9995ZM37.767 22.9995H36.0325C35.9581 22.9995 35.898 23.0583 35.898 23.1301V30.9538C35.898 31.0256 35.9581 31.0844 36.0325 31.0844H37.767C37.8415 31.0844 37.9016 31.0256 37.9016 30.9538V23.1301C37.9016 23.0583 37.8402 22.9995 37.767 22.9995ZM28.807 26.1159H30.6291C30.7035 26.1159 30.7636 26.1747 30.7636 26.2452V30.9551C30.7636 31.0269 30.7022 31.0857 30.6291 31.0857H28.807C28.7339 31.0857 28.6725 31.0269 28.6725 30.9551V26.2465C28.6725 26.1747 28.7326 26.1159 28.807 26.1159Z" fill="white" fill-rule="evenodd"/><path clip-rule="evenodd" d="M48.9536 43.6465L31.4971 52.376V37.1006L48.9536 28.3711V43.6465Z" fill="url(#paint4_linear)" fill-rule="evenodd"/><path clip-rule="evenodd" d="M14.0381 43.6465L31.4971 52.376V37.1006L14.0381 28.3711V43.6465Z" fill="url(#paint5_linear)" fill-rule="evenodd"/><path clip-rule="evenodd" d="M48.9536 28.3711L55.502 33.8264L38.043 42.5559L31.4971 37.1006L48.9536 28.3711Z" fill="url(#paint6_linear)" fill-rule="evenodd"/><path clip-rule="evenodd" d="M14.0503 28.3662L7.50194 33.8215L24.9609 42.551L31.5068 37.0957L14.0503 28.3662Z" fill="url(#paint7_linear)" fill-rule="evenodd"/><defs><linearGradient gradientUnits="userSpaceOnUse" id="paint0_linear" x1="48.5866" x2="51.2941" y1="51.9947" y2="23.5582"><stop stop-color="#C6803A"/><stop offset="1" stop-color="#A4601D"/></linearGradient><linearGradient gradientUnits="userSpaceOnUse" id="paint1_linear" x1="34.0492" x2="19.5862" y1="41.7998" y2="26.5333"><stop stop-color="#9B5F1F"/><stop offset="1" stop-color="#824C1B"/></linearGradient><linearGradient gradientUnits="userSpaceOnUse" id="paint2_linear" x1="48.0907" x2="54.2351" y1="26.8284" y2="11.0505"><stop stop-color="#EEC089"/><stop offset="1" stop-color="#C18B54"/></linearGradient><linearGradient gradientUnits="userSpaceOnUse" id="paint3_linear" x1="24.4282" x2="17.6621" y1="30.6385" y2="17.2606"><stop stop-color="#EEC089"/><stop offset="1" stop-color="#C18B54"/></linearGradient><linearGradient gradientUnits="userSpaceOnUse" id="paint4_linear" x1="46.677" x2="44.6244" y1="46.7115" y2="32.1185"><stop stop-color="#9B5F1F"/><stop offset="1" stop-color="#824C1B"/></linearGradient><linearGradient gradientUnits="userSpaceOnUse" id="paint5_linear" x1="16.1824" x2="18.5313" y1="46.5171" y2="32.0478"><stop stop-color="#C6803A"/><stop offset="1" stop-color="#A4601D"/></linearGradient><linearGradient gradientUnits="userSpaceOnUse" id="paint6_linear" x1="27.5986" x2="32.5385" y1="35.5173" y2="46.8444"><stop stop-color="#EEC089"/><stop offset="1" stop-color="#C18B54"/></linearGradient><linearGradient gradientUnits="userSpaceOnUse" id="paint7_linear" x1="34.1327" x2="28.0883" y1="35.9153" y2="53.2257"><stop stop-color="#EEC089"/><stop offset="1" stop-color="#C18B54"/></linearGradient></defs></svg>